<svg xmlns="http://www.w3.org/2000/svg" viewBox="0 0 240 180" width="240" height="180">
  <defs>
    <linearGradient id="gGrad" x1="0%" y1="0%" x2="100%" y2="100%">
      <stop offset="0%" stop-color="#451a03"/>
      <stop offset="100%" stop-color="#18181b"/>
    </linearGradient>
  </defs>
  <rect width="240" height="180" rx="12" fill="url(#gGrad)"/>
  <!-- Steel Rig / Shaft Headframe -->
  <line x1="80" y1="20" x2="50" y2="160" stroke="#f59e0b" stroke-width="4"/>
  <line x1="120" y1="20" x2="150" y2="160" stroke="#f59e0b" stroke-width="4"/>
  <line x1="60" y1="70" x2="140" y2="70" stroke="#d97706" stroke-width="3"/>
  <line x1="65" y1="110" x2="135" y2="110" stroke="#d97706" stroke-width="3"/>
  <line x1="60" y1="70" x2="135" y2="110" stroke="#d97706" stroke-width="2"/>
  <line x1="140" y1="70" x2="65" y2="110" stroke="#d97706" stroke-width="2"/>
  <!-- Headframe Wheel (Sheave) -->
  <circle cx="100" cy="30" r="16" fill="none" stroke="#fef08a" stroke-width="4"/>
  <!-- Hazard Reticle in AR style -->
  <circle cx="100" cy="110" r="28" fill="none" stroke="#ef4444" stroke-width="2" stroke-dasharray="4,4"/>
  <line x1="100" y1="75" x2="100" y2="85" stroke="#ef4444" stroke-width="2"/>
  <line x1="100" y1="135" x2="100" y2="145" stroke="#ef4444" stroke-width="2"/>
  <line x1="65" y1="110" x2="75" y2="110" stroke="#ef4444" stroke-width="2"/>
  <line x1="125" y1="110" x2="135" y2="110" stroke="#ef4444" stroke-width="2"/>
  <!-- Text HUD -->
  <rect x="68" y="145" width="64" height="18" rx="4" fill="#dc2626"/>
  <text x="100" y="158" fill="#ffffff" font-family="monospace" font-size="10" font-weight="bold" text-anchor="middle">SPARK HAZARD</text>
</svg>